<svg xmlns="http://www.w3.org/2000/svg" width="48" height="48" viewBox="0 0 48 48" version="1.1">
	<path d="M 20.200 1.200 C 18.917 2.483, 18.562 7.229, 19.667 8.333 C 20.033 8.700, 20.229 11.870, 20.102 15.378 C 19.856 22.159, 21.793 28.600, 24.377 29.591 C 25.184 29.901, 26.760 29.664, 27.880 29.064 C 29.555 28.168, 30.107 28.331, 30.993 29.987 C 33.308 34.313, 38 31.344, 38 25.552 C 38 24.134, 38.551 22.090, 39.225 21.011 C 40.932 18.277, 39.053 16.366, 36.173 17.907 C 33.073 19.566, 32.302 19.260, 31.674 16.121 C 30.935 12.425, 28.489 10, 25.500 10 C 20.366 10, 17.892 2.870, 22.785 2.176 C 25.269 1.823, 37.215 6.061, 40.785 8.562 C 43.374 10.375, 43.654 13.620, 41.435 16.072 C 40.569 17.029, 40.286 18.059, 40.801 18.377 C 42.303 19.305, 45.250 15.305, 45.250 12.339 C 45.250 8.482, 41.507 5.666, 32.311 2.604 C 23.515 -0.326, 21.912 -0.512, 20.200 1.200 M 21.493 16.712 C 22.198 23.015, 23.771 28, 25.056 28 C 25.504 28, 27.027 27.560, 28.441 27.023 C 30.559 26.217, 31.229 26.393, 32.246 28.023 C 34.044 30.901, 34.834 30.472, 35.509 26.250 C 35.839 24.188, 36.538 21.712, 37.063 20.750 C 38.203 18.658, 37.194 18.538, 34.653 20.463 C 31.935 22.523, 30.317 21.382, 29.600 16.900 C 29.250 14.713, 28.410 12.753, 27.732 12.545 C 27.054 12.337, 25.228 11.887, 23.673 11.545 L 20.847 10.923 21.493 16.712 M 24.235 19.491 C 24.566 23.230, 28.046 24.487, 27.921 20.823 C 27.874 19.447, 27.616 19.071, 27.287 19.901 C 26.880 20.931, 26.366 20.665, 25.351 18.901 L 23.970 16.500 24.235 19.491 M 8.513 31.507 C 1.984 33.832, 0.805 37.605, 4.671 43.795 C 7.404 48.169, 15.640 49.328, 23.018 46.376 C 29.151 43.922, 32.242 36.106, 28.356 32.880 C 26.900 31.672, 26.789 31.760, 27.388 33.649 C 27.947 35.408, 27.509 35.976, 24.883 36.891 C 19.247 38.856, 5 38.097, 5 35.832 C 5 34.463, 11.445 32, 15.027 32 C 16.833 32, 17.861 31.584, 17.500 31 C 16.651 29.626, 13.261 29.817, 8.513 31.507 M 23 39.184 C 21.075 39.736, 16.073 40.033, 11.885 39.843 C 4.295 39.499, 4.273 39.505, 5.298 41.754 C 5.950 43.186, 7.819 44.414, 10.413 45.115 C 17.327 46.984, 28 43.482, 28 39.345 C 28 37.816, 27.795 37.809, 23 39.184" stroke="none" fill="currentColor" fill-rule="evenodd"/>
</svg>
